<!-- <svg xmlns="http://www.w3.org/2000/svg" viewBox="0 0 20 20">
    <path fill="currentColor"
        d="M12 5.5a1 1 0 1 0 0 2a1 1 0 0 0 0-2m-5 1a1 1 0 1 1 2 0a1 1 0 0 1-2 0m3.5-4a.5.5 0 0 0-1 0V3h-3A1.5 1.5 0 0 0 5 4.5v4A1.5 1.5 0 0 0 6.5 10h7A1.5 1.5 0 0 0 15 8.5v-4A1.5 1.5 0 0 0 13.5 3h-3zM6.5 4h7a.5.5 0 0 1 .5.5v4a.5.5 0 0 1-.5.5h-7a.5.5 0 0 1-.5-.5v-4a.5.5 0 0 1 .5-.5m3.75 13.998c2.616-.033 4.195-.595 5.122-1.44c.875-.8 1.089-1.777 1.123-2.556h.005v-.69a1.81 1.81 0 0 0-1.81-1.809H11.5V11.5h-3v.003H5.31c-1 0-1.81.81-1.81 1.81v.689h.005c.034.78.248 1.757 1.123 2.555c.927.846 2.506 1.408 5.122 1.441V18h.5zm-4.94-5.495h9.38a.81.81 0 0 1 .81.81v.437c0 .69-.131 1.456-.802 2.069C14.01 16.446 12.66 17 10 17s-4.01-.554-4.698-1.181c-.67-.613-.802-1.38-.802-2.069v-.438a.81.81 0 0 1 .81-.809" />
</svg> -->

<svg xmlns="http://www.w3.org/2000/svg" viewBox="0 0 24 24">
    <path fill="currentColor"
        d="M17.753 14a2.25 2.25 0 0 1 2.25 2.25v.904A3.75 3.75 0 0 1 18.696 20c-1.565 1.344-3.806 2-6.696 2s-5.128-.656-6.69-2a3.75 3.75 0 0 1-1.306-2.843v-.908A2.25 2.25 0 0 1 6.254 14zm0 1.5h-11.5a.75.75 0 0 0-.75.75v.907c0 .655.287 1.278.784 1.706C7.545 19.945 9.441 20.5 12 20.5s4.458-.557 5.72-1.64a2.25 2.25 0 0 0 .783-1.707v-.905a.75.75 0 0 0-.75-.75M11.9 2.006L12 2a.75.75 0 0 1 .743.648l.007.102l-.001.749h3.5a2.25 2.25 0 0 1 2.25 2.25v4.505a2.25 2.25 0 0 1-2.25 2.25h-8.5a2.25 2.25 0 0 1-2.25-2.25V5.75A2.25 2.25 0 0 1 7.75 3.5l3.5-.001V2.75a.75.75 0 0 1 .649-.743L12 2zM16.25 5h-8.5a.75.75 0 0 0-.75.75v4.504c0 .414.336.75.75.75h8.5a.75.75 0 0 0 .75-.75V5.75a.75.75 0 0 0-.75-.75m-6.5 1.5a1.25 1.25 0 1 1 0 2.498a1.25 1.25 0 0 1 0-2.498m4.492 0a1.25 1.25 0 1 1 0 2.498a1.25 1.25 0 0 1 0-2.498" />
</svg>